HIERARCHY
ROOT Hips
{
	OFFSET 0.00000 0.00000 0.00000
	CHANNELS 6 Xposition Yposition Zposition Yrotation Zrotation Xrotation 
	JOINT Lumbar
	{
		OFFSET 0 0 0
		CHANNELS 3 Zrotation Xrotation Yrotation
		JOINT Neck
		{
			OFFSET 0.00 0.2701 0.00
			CHANNELS 3 Zrotation Xrotation Yrotation
			End Site
			{
				OFFSET 0.00 0.1379 0.00
			}
		}
		JOINT RightShoulder
		{
			OFFSET 0.0119 0.2289 0.1181
			CHANNELS 3 Zrotation Xrotation Yrotation
			JOINT RightElbow
			{
				OFFSET 0.00 -0.1475 0.00
				CHANNELS 2 Zrotation Yrotation
				JOINT RightWrist
				{
					OFFSET 0.00 -0.1605 0.00
					CHANNELS 2 Zrotation Xrotation
					End Site
					{
						OFFSET 0.0040 -0.1068 0.0006
					}
				}
			}
		}
		JOINT LeftShoulder
		{
			OFFSET 0.0119 0.2289 -0.1181
			CHANNELS 3 Zrotation Xrotation Yrotation
			JOINT LeftElbow
			{
				OFFSET 0.00 -0.1475 0.00
				CHANNELS 2 Zrotation Yrotation
				JOINT LeftWrist
				{
					OFFSET 0.00 -0.1605 0.00
					CHANNELS 2 Zrotation Xrotation
					End Site
					{
						OFFSET 0.0040 -0.1068 -0.0006
					}
				}
			}
		}
	}
	JOINT RightHip
	{
		OFFSET 0.0316 -0.0424 0.0458
		CHANNELS 3 Zrotation Xrotation Yrotation
		JOINT RightKnee
		{
			OFFSET 0.00 -0.2438 0.00
			CHANNELS 1 Zrotation
			JOINT RightAnkle
			{
				OFFSET 0.00 -0.2449 0.00
				CHANNELS 3 Zrotation Xrotation Yrotation
				End Site
				{
					OFFSET 0.1237 -0.0542 0.0051
				}
			}
		}
	}
	JOINT LeftHip
	{
		OFFSET 0.0316 -0.0424 -0.0458
		CHANNELS 3 Zrotation Xrotation Yrotation
		JOINT LeftKnee
		{
			OFFSET 0.00 -0.2438 0.00
			CHANNELS 1 Zrotation
			JOINT LeftAnkle
			{
				OFFSET 0.00 -0.2449 0.00
				CHANNELS 3 Zrotation Xrotation Yrotation
				End Site
				{
					OFFSET 0.1237 -0.0542 -0.0051
				}
			}
		}
	}
}
MOTION
Frames: 14
Frame Time: 0.02
0.82346 0.56864 -0.37889 -777.28788 0 -6.11002 3.34982 0.53133 -3.28248 -32.74214 2.83378 0.06142 34.71633 -29.30303 5.26204 90.5277 114.74837 -79.54882 -22.65643 17.76462 18.02196 -16.59637 97.18188 -114.21303 -71.96025 6.56273 18.84706 7.97599 -2.72493 -40.05692 6.7651 -4.36894 -4.01229 2.10249 3.24184 1.37913 -14.56145 11.32804 3.82979 2.12297
0.82678 0.56841 -0.3751 -777.72321 0 -6.14929 3.21714 0.55647 -3.19957 -32.84787 2.6885 -0.09722 34.52944 -28.95377 5.51194 91.66225 111.34801 -78.24771 -19.58321 17.96004 18.10529 -16.78137 97.08172 -114.11188 -71.9279 6.54728 18.8964 8.29051 -2.52733 -36.03258 6.04957 -4.60547 -5.33584 1.26437 3.17637 1.59113 -13.99723 11.5105 4.03435 2.31363
0.83001 0.56806 -0.37102 -778.17249 0 -6.13247 3.10136 0.57644 -3.0541 -32.92058 2.43623 -0.32426 34.16578 -28.46808 5.77637 93.14006 106.75694 -76.53231 -15.63715 18.08076 18.31255 -16.96965 96.97814 -113.99587 -71.90104 6.52839 18.81298 8.55728 -2.10959 -31.87378 5.16038 -4.8974 -7.01275 0.36322 3.0674 1.78092 -13.35251 11.65872 4.24377 2.49814
0.83328 0.56774 -0.36704 -778.60658 0 -6.13767 2.97988 0.5991 -2.93906 -33.01106 2.22824 -0.52847 33.88087 -28.04629 5.97883 94.49485 102.39883 -74.95725 -12.14315 18.23174 18.47259 -17.15144 96.88331 -113.88215 -71.86913 6.51076 18.78602 8.83672 -1.80588 -27.81188 4.3733 -5.15793 -8.49356 -0.50341 2.97617 1.98147 -12.75859 11.82842 4.449 2.68089
0.83655 0.56749 -0.36319 -779.08007 0 -6.15665 2.84925 0.62005 -2.813 -33.09136 2.0376 -0.69789 33.60452 -27.61651 6.40843 95.71667 99.27764 -73.56532 -8.40675 18.39972 18.59152 -17.3558 96.75846 -113.78605 -71.84729 6.49434 18.76826 9.15382 -1.42948 -23.55885 3.46673 -5.44406 -10.13236 -1.39595 2.89234 2.18055 -12.10103 11.97246 4.66331 2.88366
0.83981 0.56708 -0.359 -779.47248 0 -6.13449 2.74294 0.64391 -2.69693 -33.18506 1.78656 -0.95586 33.26834 -27.17163 6.37638 97.28889 93.37833 -71.71683 -4.97686 18.51432 18.82637 -17.51374 96.69475 -113.64966 -71.80643 6.47456 18.70209 9.38138 -1.16355 -19.69545 2.7746 -5.68966 -11.52 -2.24842 2.78449 2.37609 -11.56058 12.1625 4.85961 3.04255
0.84305 0.56631 -0.35401 -779.65728 0 -6.00626 2.68871 0.67196 -2.61237 -33.31672 1.38582 -1.44306 32.8021 -26.71063 4.99851 99.81549 79.3958 -68.51155 -2.53707 18.49581 19.35238 -17.53749 96.80571 -113.4128 -71.7069 6.44691 18.53947 9.37366 -1.17876 -16.84073 2.7339 -5.81696 -12.1636 -2.98287 2.60595 2.57727 -11.33572 12.48175 5.00457 3.08734
0.84628 0.5654 -0.34866 -779.75676 0 -5.84024 2.66074 0.70447 -2.54216 -33.46436 0.93001 -2.01653 32.28328 -26.24074 3.16846 102.66985 62.7865 -64.89723 -0.44884 18.42672 19.99039 -17.51473 96.97722 -113.13518 -71.58872 6.41593 18.33228 9.27821 -1.32633 -14.40525 2.91385 -5.90009 -12.53505 -3.67331 2.408 2.77378 -11.23703 12.84897 5.13117 3.08742
0.84952 0.56454 -0.34342 -779.8818 0 -5.695 2.62744 0.73773 -2.47333 -33.6086 0.50502 -2.54984 31.79297 -25.77968 1.58944 105.32762 47.84494 -61.6009 1.75377 18.38306 20.5773 -17.51691 97.11797 -112.87139 -71.48261 6.38607 18.14428 9.22191 -1.46762 -11.84861 2.98677 -5.99937 -13.0066 -4.37851 2.22807 2.96579 -11.09846 13.19924 5.26633 3.10385
0.85276 0.5637 -0.33841 -780.06125 0 -5.53058 2.5654 0.75733 -2.36976 -33.734 0.0506 -3.09049 31.27544 -25.29271 -0.18236 108.19791 30.87393 -57.73594 4.17696 18.32623 21.17148 -17.50477 97.27301 -112.62548 -71.36259 6.35762 17.9586 9.16406 -1.38137 -8.99628 3.08717 -6.11846 -13.58934 -5.10785 2.00571 3.18484 -10.88236 13.53075 5.40086 3.13546
0.85598 0.5628 -0.33282 -780.10925 0 -5.40038 2.57106 0.80869 -2.34174 -33.90466 -0.35264 -3.63427 30.80645 -24.86052 -1.6589 110.6996 17.50515 -54.95916 6.0478 18.28613 21.77281 -17.50937 97.41178 -112.33458 -71.26568 6.32562 17.75601 9.09287 -1.79372 -6.85823 3.17825 -6.18341 -13.87219 -5.77588 1.87031 3.34691 -10.86002 13.9095 5.53215 3.12662
0.85917 0.56175 -0.32582 -779.79545 0 -5.3521 2.74125 0.92747 -2.52842 -34.18001 -0.61396 -4.17475 30.46747 -24.57312 -2.21979 112.09508 14.87873 -55.32837 6.45721 18.30132 22.38875 -17.58827 97.49945 -111.91448 -71.24904 6.28363 17.54647 8.97482 -3.63646 -6.61986 3.25272 -6.12385 -13.38074 -6.28112 1.95714 3.35098 -11.33466 14.43718 5.65824 3.00092
0.86234 0.56067 -0.31823 -779.35623 0 -5.34344 2.98129 1.08116 -2.78936 -34.50293 -0.81893 -4.71295 30.1831 -24.34386 -2.46559 113.10776 15.94734 -56.80112 6.32225 18.33565 23.00295 -17.68235 97.56739 -111.45325 -71.25409 6.23837 17.31687 8.85204 -5.96241 -7.0818 3.30125 -6.00856 -12.59582 -6.72539 2.13635 3.29804 -12.00367 15.00422 5.78066 2.83794
0.86551 0.55964 -0.31086 -778.98685 0 -5.33186 3.20009 1.23216 -3.01009 -34.81575 -1.04068 -5.24631 29.88582 -24.09379 -2.84957 114.29971 15.22806 -57.74397 6.4472 18.36429 23.6031 -17.75864 97.63834 -111.02084 -71.24133 6.19528 17.07805 8.75293 -8.01077 -7.20339 3.3188 -5.90901 -11.95395 -7.20167 2.28864 3.27287 -12.58635 15.53499 5.9067 2.70409
